<?xml version="1.0" standalone="no"?>
<!DOCTYPE svg PUBLIC "-//W3C//DTD SVG 20010904//EN"
 "http://www.w3.org/TR/2001/REC-SVG-20010904/DTD/svg10.dtd">
<svg version="1.0" xmlns="http://www.w3.org/2000/svg"
 width="800.000000pt" height="800.000000pt" viewBox="0 0 800.000000 800.000000"
 preserveAspectRatio="xMidYMid meet">

<g transform="translate(0.000000,800.000000) scale(0.100000,-0.100000)"
fill="#000000" stroke="none">
<path d="M3780 7994 c-337 -28 -500 -53 -745 -114 -950 -234 -1793 -822 -2343
-1633 -369 -545 -590 -1146 -668 -1812 -25 -209 -25 -661 0 -870 110 -944 528
-1795 1199 -2441 581 -560 1311 -930 2101 -1064 261 -44 395 -55 686 -54 365
1 614 30 955 114 920 226 1739 786 2302 1575 99 138 222 344 303 506 223 444
355 899 411 1419 17 151 17 602 0 760 -68 659 -277 1256 -629 1799 -646 998
-1718 1660 -2907 1796 -132 15 -567 27 -665 19z m54 -3972 c344 -763 626
-1391 626 -1395 0 -4 -121 -7 -268 -7 l-269 0 -136 318 -135 317 -704 3 -703
2 -135 -317 -135 -318 -269 -3 c-213 -2 -267 0 -263 10 3 7 285 635 627 1396
l623 1382 257 0 257 0 627 -1388z m2006 733 c322 -53 553 -219 653 -469 15
-35 35 -109 47 -164 19 -95 20 -136 20 -801 l0 -701 -235 0 -235 0 0 123 0
122 -37 -43 c-86 -103 -251 -188 -425 -218 -128 -22 -370 -15 -483 15 -259 68
-444 236 -500 456 -8 33 -15 102 -15 155 0 318 184 522 545 603 80 18 136 20
485 24 217 3 399 8 403 12 12 12 -10 161 -33 225 -30 78 -113 167 -194 206
-234 111 -656 57 -899 -117 -27 -19 -50 -33 -52 -31 -2 2 -46 82 -99 178 l-95
175 30 26 c48 42 200 117 312 154 91 29 253 66 352 78 85 11 368 6 455 -8z"/>
<path d="M2683 4282 l-260 -607 520 -3 c286 -1 522 -1 523 1 4 4 -509 1203
-518 1212 -2 3 -122 -268 -265 -603z"/>
<path d="M5388 3520 c-121 -21 -202 -71 -244 -152 -22 -43 -30 -147 -14 -202
14 -53 66 -117 122 -152 54 -35 177 -64 265 -64 232 0 437 109 522 277 30 60
31 68 31 183 l0 120 -317 -1 c-175 -1 -339 -5 -365 -9z"/>
</g>
</svg>
